<?xml version="1.0" encoding="UTF-8"?>
<svg width="135px" height="40px" viewBox="0 0 135 40" version="1.1" xmlns="http://www.w3.org/2000/svg" xmlns:xlink="http://www.w3.org/1999/xlink">
    <!-- Generator: Sketch 43 (38999) - http://www.bohemiancoding.com/sketch -->
    <title>goat.fm</title>
    <desc>Created with Sketch.</desc>
    <defs></defs>
    <g id="Page-1" stroke="none" stroke-width="1" fill="none" fill-rule="evenodd">
        <g id="logo" transform="translate(-1.000000, -8.000000)" fill="#000000">
            <path d="M9.72,47.56 C4.36,47.56 1.16,45.88 1.16,42.36 C1.16,40.2 2.52,38.64 4.44,37.6 C3.36,36.96 2.72,36.04 2.72,34.64 C2.72,32.84 3.72,31.68 4.88,30.96 C2.68,29.76 1.44,27.68 1.44,25.12 C1.44,20.92 4.68,18.04 10.08,18.04 C11.36,18.04 12.56,18.2 13.56,18.52 L20.64,18.52 L20.64,22 L17.96,22 C18.48,22.92 18.76,24 18.76,25.12 C18.76,29.28 15.8,32.16 10.36,32.16 C9.56,32.16 8.76,32.12 8.04,32 C7.56,32.28 7.32,32.64 7.32,33.12 C7.32,34.16 8.44,34.36 11.24,34.52 C15.28,34.72 20.4,34.76 20.4,40.52 C20.4,44.64 16.12,47.56 9.72,47.56 Z M10.04,44 C13.28,44 15.12,42.76 15.12,41.12 C15.12,39.04 13.28,39.12 10.44,38.92 C9.52,38.84 8.6,38.8 7.76,38.64 C6.76,39.36 6.24,40.2 6.24,41.36 C6.24,42.92 7.32,44 10.04,44 Z M10.12,28.72 C12.32,28.72 13.64,27.36 13.64,25.12 C13.64,22.84 12.32,21.52 10.12,21.52 C7.92,21.52 6.6,22.84 6.6,25.12 C6.6,27.36 7.92,28.72 10.12,28.72 Z M32.2,38.48 C25.4,38.48 22.44,33.32 22.44,28.32 C22.44,23.32 25.36,18.04 32.16,18.04 C38.96,18.04 42.04,23.16 42.04,28.16 C42.04,33.08 39.04,38.48 32.2,38.48 Z M32.28,34.44 C35.32,34.44 36.4,31.96 36.4,28.32 C36.4,24.68 35.12,22 32.08,22 C29.08,22 28.08,24.52 28.08,28.16 C28.08,31.8 29.28,34.44 32.28,34.44 Z M50.44,38.48 C47.12,38.48 44.56,36.48 44.56,33 C44.56,27.92 49.8,26.08 54.96,26.08 L55.64,26.08 L55.64,24.96 C55.64,23.08 54.8,22.24 52.48,22.24 C50.36,22.24 48.68,23.16 47.52,24.08 L45.2,20.84 C46.76,19.4 49.4,18.04 53.08,18.04 C58.4,18.04 60.92,20.08 60.92,25.24 L60.92,32.24 C60.92,34.88 61.2,36.76 61.48,38 L56.24,38 C56.08,37.52 55.96,36.52 55.92,35.92 C54.88,37.2 52.96,38.48 50.44,38.48 Z M52.04,34.6 C53.68,34.6 54.8,33.84 55.64,32.88 L55.64,29.36 L54.96,29.36 C51.84,29.36 49.68,30.28 49.68,32.56 C49.68,34 50.84,34.6 52.04,34.6 Z M73.36,38.48 C75.8,38.48 77.44,37.8 78.24,37.36 L77,33.4 C76.6,33.64 75.6,34.12 74.44,34.12 C72.96,34.12 72.48,33.28 72.48,31.36 L72.48,22.48 L77.04,22.48 L77.04,18.52 L72.48,18.52 L72.48,12.88 L67.2,12.88 L67.2,18.52 L64.08,18.52 L64.08,22.48 L67.2,22.48 L67.2,32.4 C67.2,36.12 68.76,38.48 73.36,38.48 Z M84.88,38.4 C86.84,38.4 88.4,36.88 88.4,34.96 C88.4,33.04 86.84,31.56 84.88,31.56 C82.92,31.56 81.32,33.04 81.32,34.96 C81.32,36.88 82.92,38.4 84.88,38.4 Z M94.16,38 L99.48,38 L99.48,22.48 L104.12,22.48 L104.12,18.52 L99.48,18.52 L99.48,16.92 C99.48,14.4 100.48,13.08 102.64,13.08 C104.08,13.08 105,13.48 105.32,13.64 L106.56,9.64 C106.08,9.36 104.68,8.72 101.84,8.72 C96.88,8.72 94.16,11.84 94.16,16.52 L94.16,18.52 L91.24,18.52 L91.24,22.48 L94.16,22.48 L94.16,38 Z M107.28,38 L112.6,38 L112.6,24.88 C113,24.36 114.28,22.48 116.24,22.48 C117.84,22.48 118.52,23.48 118.52,25.44 L118.52,38 L123.84,38 L123.84,24.68 C124.6,23.76 125.84,22.48 127.48,22.48 C129.24,22.48 129.8,23.52 129.8,25.44 L129.8,38 L135.12,38 L135.12,24.36 C135.12,20.76 133.68,18.04 129.56,18.04 C126.76,18.04 124.96,19.28 123.32,21.12 C122.6,19.28 121.08,18.04 118.32,18.04 C115.2,18.04 113.48,19.8 112.48,20.92 L112.48,18.52 L107.28,18.52 L107.28,38 Z" id="goat.fm"></path>
        </g>
    </g>
</svg>